<?xml version="1.0" encoding="UTF-8" standalone="no"?>
<!-- Created with Inkscape (http://www.inkscape.org/) -->

<svg
   version="1.1"
   id="svg1"
   width="869.23077"
   height="2214.3987"
   viewBox="0 0 869.23078 2214.3987"
   xmlns="http://www.w3.org/2000/svg"
   xmlns:svg="http://www.w3.org/2000/svg">
  <defs
     id="defs1" />
  <g
     id="g1"
     transform="translate(-1075.0359,-119.57343)">
    <g
       id="group-R5">
      <path
         id="path3"
         d="m 13805.4,1594.4 c 17.1,-202.5 5.2,-315.1 5.2,-315.1 0,0 -54.3,-73 -395.6,-148 -80.4,-17.8 -176.9,-35.6 -292.3,-52.5 -385.5,-56.7 -983,-104.3 -1906,-107.999 -12.3,0 -24.6,-0.098 -36.8,-0.098 -2336.6,-6.301 -2451.1,308.597 -2451.1,308.597 1.4,110.6 4.8,215.5 10.1,315.1 11,204.6 29.8,386.4 54.1,548.1 133.3,885 434.6,1169.3 539,1287.2 19,21.4 36,43.8 51.5,67.1 93.3,140.1 131.8,314.9 203.5,524.3 12.4,36.2 30.4,102.1 52.2,188.7 17.8,70.6 38.1,155 59.9,248.3 10.3,44 20.9,90 31.8,137.4 47.6,208.1 99.7,444.5 147.6,666.4 54.2,250.6 102.9,482.8 133.6,634.9 0,0 0,0.1 0.1,0.2 15.6,77.6 26.6,134.3 31.2,162 -6,12.5 -12,24.9 -17.8,37.3 -454.4,957.4 -603.5,1805 -645.1,2230.8 0,0 0,0 0,0.1 -1.7,16.7 -3.1,32.7 -4.4,48.1 v 0.1 c -7.2,83.6 -9.8,147.5 -9.8,188.6 -150,257.1 -381.4,810 -450,947.1 -21.4,42.8 -35.2,111.8 -44.2,191.9 -0.1,0.2 -0.1,0.3 -0.1,0.3 -19.8,176.6 -15.7,407 -15.7,527.8 -78.8,160.8 -56.8,586.6 -37.1,821.8 0.9,11.8 1.9,23.1 2.8,33.9 2.4,26.7 4.7,50.2 6.6,69.4 3.7,36.9 6.3,58.5 6.3,58.5 -173.1,287.1 -231.5,666.6 -246.7,925.7 -9.8,164.3 -2.1,280.3 4.5,293.6 17.2,34.3 0,203.6 8.6,252.8 8.6,49.3 -79.3,257.2 -186.4,625.8 -107.2,368.5 -338.6,592.5 -351.5,705 -12.8,112.4 173.1,208.7 196,234.5 -19,133.3 -28.8,269.5 -28.8,407.9 0,1611.9 1327.8,2918.6 2965.7,2918.6 1637.9,0 2965.7,-1306.7 2965.7,-2918.6 0,-49.2 -1.2,-98 -3.7,-146.6 1.3,0.9 2.1,1.6 2.5,2.3 0.1,0.1 0.1,0.1 0.1,0.1 22.5,45 67.5,315 209,334.3 141.4,19.2 212.1,-61.1 212.1,-241.1 0,-180 -732.8,-2359.3 -767.4,-2423.6 -19.4,-36.1 -18.3,-76.2 -29.4,-251.3 v -0.1 c -8.8,-136.7 -25.1,-355.7 -64.6,-719.3 -87.3,-804 -422.2,-2332.9 -729.7,-3386.2 -0.1,-0.7 -0.2,-1 -0.2,-1 -9.6,-32.9 -19.2,-65.2 -28.7,-97.1 -223.4,-748 -421.1,-1182 -540,-1396.4 l -0.1,-0.2 c -48.6,-87.7 -84.1,-138.5 -102.7,-159.1 12.8,-70.7 630,-2070 642.8,-2127.9 12.9,-57.8 64.3,-167.1 192.9,-549.6 304,-526.3 469.4,-989.6 558.5,-1354.7 54.1,-221.4 80.1,-406.7 92,-548.1"
         style="fill:#fab426;fill-opacity:1;fill-rule:nonzero;stroke:none"
         transform="matrix(0.13333333,0,0,-0.13333333,0,2463.3867)" />
      <path
         id="path4"
         d="m 10823.4,14144 c 0,0 295.8,-415.7 347.2,-473.6 51.4,-57.8 660,-620.2 660,-620.2 l 921.6,-427.9 c 0,0 304.6,-134.3 962.2,663.7 l 86.5,-743.8 -617.1,-1918.9 -549.6,-501.5 -781.1,376.1 -433.9,1137.9 -321.5,1414.4 -324.6,957.7 50.3,136.1"
         style="fill:#f89a1f;fill-opacity:1;fill-rule:nonzero;stroke:none"
         transform="matrix(0.13333333,0,0,-0.13333333,0,2463.3867)" />
      <path
         id="path5"
         d="m 11217.7,16231.1 c 0,-158.5 -4.3,-407.1 -441.4,-574.3 -437.1,-167.1 -715.7,-265.7 -861.4,-188.5 -145.7,77.1 -171.5,347.1 -557.2,300 -385.7,-47.2 -158.5,-235.7 -158.5,-282.9 0,-47.1 37.5,-153.2 -81.5,-227.1 -118.9,-74 -96.4,-212.2 -28.9,-196.1 67.5,16.1 99.6,122.1 109.3,170.4 9.6,48.2 183.2,208.9 234.6,170.3 51.5,-38.6 86.8,-51.4 86.8,-80.3 0,-29 48.2,-36.5 61.1,-19.3 12.8,17.1 57.8,18.2 72.8,5.3 15,-12.8 203.6,-154.8 258.3,-96.9 54.6,57.8 135,205.7 249.1,168.7 114.1,-36.9 253.4,-107.1 176.2,-190.7 -77.1,-83.6 -499.3,-364.3 -604.3,-480 -68.5,-21.4 -297.8,77.2 -355.7,-122.1 -57.8,-199.3 34.3,-310.8 79.3,-246.5 45,64.3 -57.9,186.5 60,192.9 117.9,6.4 201.1,-102.8 175.7,-184.3 -25.4,-81.5 -88.9,-319.3 -249.6,-373.9 -160.7,-54.7 -176.8,77.1 -219.7,83.5 -42.8,6.5 -96.4,-146.7 -81.4,-245.3 15,-98.6 -53.6,-109.3 -60,-137.2 -6.4,-27.8 -34.3,-93.2 41.2,-175.1 75.6,-82 207.4,-225 197.7,-266.8 -9.6,-41.8 -27.4,-439.3 608.2,-996.7 -834.4,451.3 -1401.2,1334.1 -1401.2,2349.4 0,547.8 165,1057 448,1480.7 66.3,6.7 138.9,-18.2 158.6,-147.9 0,0 164.2,121 -1,360.3 442.3,538.3 1091,900.6 1825.2,965.5 -9,-3.4 -474.9,-177.7 -430.3,-445.1 45,-270 308.6,-175.7 443.6,-267.8 135,-92.2 246.4,-143.6 246.4,-302.2"
         style="fill:#589e72;fill-opacity:1;fill-rule:nonzero;stroke:none"
         transform="matrix(0.13333333,0,0,-0.13333333,0,2463.3867)" />
      <path
         id="path6"
         d="m 11217.7,16231.1 c 0,-158.5 -4.3,-407.1 -441.4,-574.3 -437.1,-167.1 -715.7,-265.7 -861.4,-188.5 -145.7,77.1 -171.5,347.1 -557.2,300 -385.7,-47.2 -158.5,-235.7 -158.5,-282.9 0,-47.1 37.5,-153.2 -81.5,-227.1 -118.9,-74 -96.4,-212.2 -28.9,-196.1 67.5,16.1 99.6,122.1 109.3,170.4 9.6,48.2 183.2,208.9 234.6,170.3 51.5,-38.6 86.8,-51.4 86.8,-80.3 0,-29 48.2,-36.5 61.1,-19.3 12.8,17.1 57.8,18.2 72.8,5.3 15,-12.8 203.6,-154.8 258.3,-96.9 54.6,57.8 135,205.7 249.1,168.7 114.1,-36.9 253.4,-107.1 176.2,-190.7 -77.1,-83.6 -499.3,-364.3 -604.3,-480 -68.5,-21.4 -297.8,77.2 -355.7,-122.1 -57.8,-199.3 34.3,-310.8 79.3,-246.5 45,64.3 -57.9,186.5 60,192.9 117.9,6.4 201.1,-102.8 175.7,-184.3 -25.4,-81.5 -88.9,-319.3 -249.6,-373.9 -160.7,-54.7 -176.8,77.1 -219.7,83.5 -42.8,6.5 -96.4,-146.7 -81.4,-245.3 15,-98.6 -53.6,-109.3 -60,-137.2 -6.4,-27.8 -34.3,-93.2 41.2,-175.1 75.6,-82 207.4,-225 197.7,-266.8 -9.6,-41.8 -27.4,-439.3 608.2,-996.7 -834.4,451.3 -1401.2,1334.1 -1401.2,2349.4 0,547.8 165,1057 448,1480.7 66.3,6.7 138.9,-18.2 158.6,-147.9 0,0 164.2,121 -1,360.3 442.3,538.3 1091,900.6 1825.2,965.5 -9,-3.4 -474.9,-177.7 -430.3,-445.1 45,-270 308.6,-175.7 443.6,-267.8 135,-92.2 246.4,-143.6 246.4,-302.2"
         style="fill:#f5de40;fill-opacity:1;fill-rule:nonzero;stroke:none"
         transform="matrix(0.13333333,0,0,-0.13333333,0,2463.3867)" />
      <path
         id="path7"
         d="m 9980.76,14568.8 c 0,0 -12.85,89.2 30.54,91.2 43.4,2 59.5,95.2 0,119.3 -59.46,24.1 -149.46,16.1 -141.43,-53 8.04,-69.1 33.75,-168.7 110.89,-157.5"
         style="fill:#f5de40;fill-opacity:1;fill-rule:nonzero;stroke:none"
         transform="matrix(0.13333333,0,0,-0.13333333,0,2463.3867)" />
      <path
         id="path8"
         d="m 11170.6,13670.4 c 0,0 80.8,17.2 151.8,-17.1 71,-34.3 193.2,-94.3 206,-40.7 12.9,53.5 57.9,90 111.5,51.4 53.5,-38.6 212.1,-205.7 325.7,-207.9 113.6,-2.1 390,21.5 424.3,36.5 34.3,15 162.8,-30 137.1,-66.5 -25.7,-36.4 -87.8,-147.8 -62.1,-195 25.7,-47.1 122.1,-237.8 323.5,-216.4 201.5,21.4 177.9,150 162.9,227.1 -15,77.2 -25.7,289.3 64.3,345 90,55.8 233.6,263.6 150,385.8 -83.6,122.1 -210,357.8 -235.7,439.2 -25.7,81.5 -109.3,353.6 -111.5,454.3 -2.1,100.7 -15,621.5 -42.8,653.6 -27.9,32.1 -210,210 -227.2,306.4 -17.1,96.5 -13.9,338.6 177.4,338.6 191.2,0 609.1,-173.6 760.1,-276.4 151.1,-102.9 279.7,-604.3 275.4,-651.5 -4.3,-47.1 -68.6,-135 -60,-229.2 8.6,-94.3 2.1,-572.2 -53.6,-640.8 -55.7,-68.5 -383.5,-345 -387.8,-445.7 -4.3,-100.7 -115.7,-593.5 -145.7,-696.4 -30,-102.9 -47.2,-340.7 -394.3,-630 0,0 -1113.2,-197.1 -1549.3,1075.7"
         style="fill:#f5de40;fill-opacity:1;fill-rule:nonzero;stroke:none"
         transform="matrix(0.13333333,0,0,-0.13333333,0,2463.3867)" />
      <path
         id="path9"
         d="m 12837.7,13786.1 c 0,0 9.7,-79.3 5.4,-109.3 -4.3,-30 -61.1,-13.9 -75,7.5 -13.9,21.5 -31.1,53.6 -45,81.5 -13.9,27.8 -15,77.1 0,101.8 15,24.6 33.1,50.3 55.1,38.5 22,-11.8 38.1,-15 59.5,-120"
         style="fill:#f5de40;fill-opacity:1;fill-rule:nonzero;stroke:none"
         transform="matrix(0.13333333,0,0,-0.13333333,0,2463.3867)" />
      <path
         id="path10"
         d="m 11354.3,13753.4 c 0,0 16.6,100.8 5.9,109.3 -10.7,8.6 -31.6,16.6 -34.3,27.9 -2.6,11.2 -55.7,39.6 -75.5,17.1 -19.8,-22.5 9.7,-89.4 38.6,-107.1 28.9,-17.7 55.2,-61.6 65.3,-47.2"
         style="fill:#f5de40;fill-opacity:1;fill-rule:nonzero;stroke:none"
         transform="matrix(0.13333333,0,0,-0.13333333,0,2463.3867)" />
      <path
         id="path11"
         d="m 10183.3,13106.3 c 0,0 -112.5,20.9 -125.4,0 -12.8,-20.9 11.3,-77.1 62.7,-104.5 51.4,-27.3 85.2,-17.6 107.7,0 22.5,17.7 57.8,85.2 -45,104.5"
         style="fill:#f5de40;fill-opacity:1;fill-rule:nonzero;stroke:none"
         transform="matrix(0.13333333,0,0,-0.13333333,0,2463.3867)" />
      <path
         id="path12"
         d="m 10394.9,13696.1 c 0,0 -297.9,66.5 -447.89,-115.7 -150,-182.1 -62.14,-302.1 0,-357.8 62.19,-55.8 306.39,-160.8 417.89,0 111.4,160.7 192.8,452.1 30,473.5"
         style="fill:#f5de40;fill-opacity:1;fill-rule:nonzero;stroke:none"
         transform="matrix(0.13333333,0,0,-0.13333333,0,2463.3867)" />
      <path
         id="path13"
         d="m 8648.44,13165.4 c 0,0 400.28,-1257.2 1215.86,-1424 815.6,-166.7 719.1,2186.2 699.9,2244 -19.3,57.9 -231.5,694.4 -231.5,694.4 l -79.9,-62.1 c 0,0 176.4,-1088.7 54.2,-1770.1 -122.1,-681.5 -265.7,-938.6 -640.7,-771.5 -375,167.2 -1011.43,970 -1017.86,1089.3"
         style="fill:#f89a1f;fill-opacity:1;fill-rule:nonzero;stroke:none"
         transform="matrix(0.13333333,0,0,-0.13333333,0,2463.3867)" />
      <path
         id="path14"
         d="m 14582,14609 c 0,-180 -732.8,-2359.3 -767.4,-2423.6 -19.4,-36.1 -18.3,-76.2 -29.4,-251.3 v -0.1 c -226.5,-432.4 -494.4,-1702.2 -533.9,-1786.4 -48.2,-102.9 -19.3,-131.8 -25.7,-289.3 31.6,-468.7 -227.1,-1985.2 -234.7,-2029.8 -0.1,-0.7 -0.2,-1 -0.2,-1 -9.6,-32.9 -19.2,-65.2 -28.7,-97.1 -223.4,-748 -421.1,-1182 -540,-1396.4 l -0.1,-0.2 -102.7,-159.1 C 11014.2,4638.3 9699.1,4458.1 9699.1,4458.1 c 10.3,44 20.9,90 31.8,137.4 47.6,208.1 99.7,444.5 147.6,666.4 54.2,250.6 102.9,482.8 133.6,634.9 0,0 0,0.1 0.1,0.2 15.6,77.6 26.6,134.3 31.2,162 -6,12.5 -12,24.9 -17.8,37.3 144.5,252.3 480.7,848.2 660.7,1177.7 227.1,415.7 702.9,1692.8 754.3,2344.3 51.4,651.4 -64.3,934.3 -109.3,1212.8 -26.4,163.3 -112.4,550.3 -197.2,911 -59.8,254.6 -119.1,496.1 -156.4,636.2 -52.1,196.1 -230.9,791 -400.4,1319.9 v 0.3 c -64,199.6 -126.6,389.4 -180.6,545.2 -49.9,143.9 -92.4,258.6 -121.8,324.2 -7.8,17.3 -15.1,33.9 -22.1,49.8 -123.9,283.5 -122.9,357.7 -33.6,434.9 94.2,81.4 205.7,17.1 312.8,-138.3 107.9,-191.2 217.2,-430.9 321.2,-685.5 37.7,-92.1 74.6,-186.2 110.6,-280.7 255.5,-670.8 460.5,-1359.7 502.5,-1497 35.6,-116.4 114.7,-419.7 178.8,-676.5 51.6,-206.5 93.6,-382.9 95.5,-407.8 4.3,-55.7 47.1,-552.8 450,-724.2 402.8,-171.5 687.8,186.4 732.8,244.2 45,57.9 411.5,1317.9 527.2,1658.6 25.8,76 75.5,216.1 137,388 38.6,107.7 81.8,227.9 126.8,352.6 192.1,532 415.9,1145.9 443.6,1221.9 1.7,4.6 2.6,7.2 2.8,7.8 0.1,0.1 0.1,0.1 0.1,0.1 22.5,45 67.5,315 209,334.3 141.4,19.2 212.1,-61.1 212.1,-241.1"
         style="fill:#f5de40;fill-opacity:1;fill-rule:nonzero;stroke:none"
         transform="matrix(0.13333333,0,0,-0.13333333,0,2463.3867)" />
      <path
         id="path15"
         d="m 12079.2,7552.6 c 0,0 -2119.33,-2650.8 -2280.04,-2843.6 0,0 2127.84,1825.7 2205.04,1883.6 0,0 72.8,908.5 75,960"
         style="fill:#f89a1f;fill-opacity:1;fill-rule:nonzero;stroke:none"
         transform="matrix(0.13333333,0,0,-0.13333333,0,2463.3867)" />
      <path
         id="path16"
         d="m 11573.4,8624 c -45,-186.4 -77.1,-295.7 25.8,-405 102.8,-109.3 385.7,-556.1 385.7,-556.1 0,0 -1588.3,-1841.2 -2106.4,-2401 54.2,250.6 102.9,482.8 133.6,634.9 0,0 0,0.1 0.1,0.2 11.8,15.5 765.9,1007.9 989.1,1486.3 225,482.1 495,1073.5 552.9,1980 57.8,906.4 83.5,951.4 45,1099.3 -38.6,147.8 -186.5,636.4 -186.5,668.5 0,0 327.9,-642.8 334.3,-700.7 6.4,-57.8 -51.4,-713.6 -6.4,-726.4 45,-12.9 469.3,-231.4 687.8,-57.9 0,0 -6.4,-340.7 -617.1,-289.3 0,0 -192.9,-546.4 -237.9,-732.8"
         style="fill:#f89a1f;fill-opacity:1;fill-rule:nonzero;stroke:none"
         transform="matrix(0.13333333,0,0,-0.13333333,0,2463.3867)" />
      <path
         id="path17"
         d="m 10315.1,7621.1 -10.6,-164.5 -1.8,-27.3 -709.1,521.8 -171.6,360 -45.9,64.2 v 0.1 c -7.2,83.6 -9.8,147.5 -9.8,188.6 -150,257.1 -381.4,810 -450,947.1 -21.4,42.8 -35.2,111.8 -44.2,191.9 12.3,-24.5 801,-1592.9 1443,-2081.9"
         style="fill:#f5de40;fill-opacity:1;fill-rule:nonzero;stroke:none"
         transform="matrix(0.13333333,0,0,-0.13333333,0,2463.3867)" />
      <path
         id="path18"
         d="m 10326.3,7445.4 -265.7,-484.3 c 0,0 -519.3,933.9 -680.1,1366 0,0 0,0 0,0.1 -1.7,16.7 -3.1,32.7 -4.4,48.1 v 0.1 c -7.2,83.6 -9.8,147.5 -9.8,188.6 0,0 576.3,-909.8 938.2,-1107.4 7.4,-4.1 14.6,-7.8 21.8,-11.2"
         style="fill:#f89a1f;fill-opacity:1;fill-rule:nonzero;stroke:none"
         transform="matrix(0.13333333,0,0,-0.13333333,0,2463.3867)" />
      <path
         id="path19"
         d="m 10939.2,8932.6 -10.8,-274.7 -79.2,-93.9 -780,368.6 -713.6,919.2 -360,842.2 -158.6,360 -15,32.8 c 2.4,26.7 4.7,50.2 6.6,69.4 3.7,36.9 6.3,58.5 6.3,58.5 -173.1,287.1 -231.5,666.6 -246.7,925.7 0,0 1292.4,-3056.8 2351,-3207.8"
         style="fill:#f5de40;fill-opacity:1;fill-rule:nonzero;stroke:none"
         transform="matrix(0.13333333,0,0,-0.13333333,0,2463.3867)" />
      <path
         id="path20"
         d="m 10939.2,8656.1 c 0,0 -282.9,-576.4 -297.9,-655.7 0,0 -1117.9,570.5 -1822.1,3052.5 0.9,11.8 1.9,23.1 2.8,33.9 2.4,26.7 4.7,50.2 6.6,69.4 0,0 911.5,-2302.9 2099.8,-2498.3 3.6,-0.7 7.2,-1.2 10.8,-1.8"
         style="fill:#f89a1f;fill-opacity:1;fill-rule:nonzero;stroke:none"
         transform="matrix(0.13333333,0,0,-0.13333333,0,2463.3867)" />
      <path
         id="path21"
         d="m 11097.7,9343.99 c 0,0 -173.5,2494.31 -289.3,2648.61 0,0 -462.8,-978 -1478.53,-251.2 0,0 443.57,-578.1 822.83,-571.7 379.3,6.4 661.7,-830 945,-1825.71"
         style="fill:#f89a1f;fill-opacity:1;fill-rule:nonzero;stroke:none"
         transform="matrix(0.13333333,0,0,-0.13333333,0,2463.3867)" />
      <path
         id="path22"
         d="m 13810.6,1279.3 c 0,0 -54.3,-73 -395.6,-148 -80.4,-17.8 -176.9,-35.6 -292.3,-52.5 -385.5,-56.7 -983,-104.3 -1906,-107.999 -12.3,0 -24.6,-0.098 -36.8,-0.098 -0.8,94.997 -1.5,253.997 -2.1,453.697 -0.4,162 -0.8,350.8 -1.2,554.1 -0.6,444.7 -1.1,958.6 -1.4,1412 0,207 -0.1,401.5 -0.2,571 -0.1,373 -0.1,625.3 -0.1,625.3 -301.4,-228.4 -1143.1,-337.4 -1535.7,-377 17.8,70.6 38.1,155 59.9,248.3 10.3,44 20.9,90 31.8,137.4 241.3,71 595.4,299.9 595.4,299.9 l 1446.4,1202.2 546.5,77.1 c 12.8,-70.7 630,-2070 642.8,-2127.9 12.9,-57.8 64.3,-167.1 192.9,-549.6 304,-526.3 469.4,-989.6 558.5,-1354.7 54.1,-221.4 80.1,-406.7 92,-548.1 17.1,-202.5 5.2,-315.1 5.2,-315.1"
         style="fill:#f89a1f;fill-opacity:1;fill-rule:nonzero;stroke:none"
         transform="matrix(0.13333333,0,0,-0.13333333,0,2463.3867)" />
      <path
         id="path23"
         d="m 13424.9,1841.8 -4.1,-296.1 -5.8,-414.4 c -80.4,-17.8 -176.9,-35.6 -292.3,-52.5 v 505.9 l -51.4,424.3 c -2.5,17.1 -5,34 -7.6,50.8 -134.2,872.5 -428.3,1290.1 -497.1,1377.8 -9.3,12 -14.5,17.8 -14.5,17.8 0,0 -27.2,64.3 -1.5,141.4 8.3,25 -19.8,195.9 -61.6,415.4 -87.3,457.9 -234.1,1127.5 -234.1,1127.5 l 128.5,83.6 283,-1199.4 12.8,-54.2 6.4,-417.9 c 35.5,-30.8 69.2,-62.5 101.1,-95 488.7,-497.7 566,-1180.3 578.1,-1362.8 2,-29.9 2.2,-46.4 2.2,-46.4 l 57.9,-205.8"
         style="fill:#f5de40;fill-opacity:1;fill-rule:nonzero;stroke:none"
         transform="matrix(0.13333333,0,0,-0.13333333,0,2463.3867)" />
      <path
         id="path24"
         d="m 11037.7,15322.6 c 0,0 351.5,-34.3 385.7,-372.9 0,0 55.8,372.9 377.2,372.9 0,0 -330,51.4 -360,390 0,0 -51.4,-338.6 -402.9,-390"
         style="fill:#ffffff;fill-opacity:1;fill-rule:nonzero;stroke:none"
         transform="matrix(0.13333333,0,0,-0.13333333,0,2463.3867)" />
      <path
         id="path25"
         d="m 11618,16367.7 c 0,0 551.1,-53.7 604.8,-584.6 0,0 87.4,584.6 591.4,584.6 0,0 -517.5,80.7 -564.5,611.6 0,0 -80.6,-530.9 -631.7,-611.6"
         style="fill:#ffffff;fill-opacity:1;fill-rule:nonzero;stroke:none"
         transform="matrix(0.13333333,0,0,-0.13333333,0,2463.3867)" />
      <path
         id="path26"
         d="m 12966.7,11885.1 c 104.6,-448.9 -47.3,-868 -339.5,-936.1 -292.1,-68.1 -613.8,240.5 -718.5,689.4 -104.7,448.9 47.3,868 339.4,936.1 292.2,68.1 613.9,-240.5 718.6,-689.4"
         style="fill:#f5de40;fill-opacity:1;fill-rule:nonzero;stroke:none"
         transform="matrix(0.13333333,0,0,-0.13333333,0,2463.3867)" />
      <path
         id="path27"
         d="m 13154.9,3497.2 c -123.3,-15.3 -246.2,-28.7 -368.2,-40.4 -73.7,-7 -147.1,-13.4 -220.1,-19.2 -492.7,-38.9 -966.4,-50.5 -1390.9,-47.1 h -0.5 c -1044.6,8.2 -1791.7,106.3 -1791.7,106.3 93.3,140.1 131.8,314.9 203.5,524.3 496.7,-53.3 1063,-65.8 1588,-59.6 511.4,6 983.6,29.7 1314,50.7 64.9,4 124.3,8 177.4,11.7 186,13 295.6,22.9 295.6,22.9 12.9,-57.8 64.3,-167.1 192.9,-549.6"
         style="fill:#4bc195;fill-opacity:1;fill-rule:nonzero;stroke:none"
         transform="matrix(0.13333333,0,0,-0.13333333,0,2463.3867)" />
      <path
         id="path28"
         d="m 11175.7,3390.5 -0.7,571 c 511.4,6 983.6,29.7 1314,50.7 64.9,4 124.3,8 177.4,11.7 186,13 295.6,22.9 295.6,22.9 12.9,-57.8 64.3,-167.1 192.9,-549.6 -123.3,-15.3 -246.2,-28.7 -368.2,-40.4 -73.7,-7 -147.1,-13.4 -220.1,-19.2 -492.7,-38.9 -966.4,-50.5 -1390.9,-47.1"
         style="fill:#3ba37c;fill-opacity:1;fill-rule:nonzero;stroke:none"
         transform="matrix(0.13333333,0,0,-0.13333333,0,2463.3867)" />
      <path
         id="path29"
         d="m 13805.4,1594.4 c 0,0 -138.8,-21.2 -384.6,-48.7 -86.6,-9.7 -186.4,-20.1 -298.1,-30.6 -471.5,-44.6 -1154.6,-91.2 -1944.6,-90.7 h -0.3 c -746.9,0.6 -1589.4,43.3 -2438.9,170 11,204.6 29.8,386.4 54.1,548.1 0,0 1019.6,-150.8 2383.6,-164 h 0.8 c 583.4,-5.7 1229.8,13.9 1886.3,81.3 100.2,10.2 200.6,21.6 301.1,34.2 116.2,14.5 232.5,30.6 348.6,48.5 54.1,-221.4 80.1,-406.7 92,-548.1"
         style="fill:#4bc195;fill-opacity:1;fill-rule:nonzero;stroke:none"
         transform="matrix(0.13333333,0,0,-0.13333333,0,2463.3867)" />
      <path
         id="path30"
         d="m 13805.4,1594.4 c 0,0 -138.8,-21.2 -384.6,-48.7 -86.6,-9.7 -186.4,-20.1 -298.1,-30.6 -471.5,-44.6 -1154.6,-91.2 -1944.6,-90.7 l -0.7,554.1 c 583.4,-5.7 1229.8,13.9 1886.3,81.3 100.2,10.2 200.6,21.6 301.1,34.2 116.2,14.5 232.5,30.6 348.6,48.5 54.1,-221.4 80.1,-406.7 92,-548.1"
         style="fill:#3ba37c;fill-opacity:1;fill-rule:nonzero;stroke:none"
         transform="matrix(0.13333333,0,0,-0.13333333,0,2463.3867)" />
    </g>
  </g>
</svg>
